<svg xmlns="http://www.w3.org/2000/svg" viewBox="0 0 96 85" fill="none">
  <g>
    <path d="M19.155 8.17c1.472-2.224 3.105-4.108 5.344-5.6C27.604.501 31.303-.54 35.01.28c2.986.662 5.416 2.671 7.052 5.178 1.683 3.546 3.16 7.076 4.252 10.852.223.768.506 2.295.82 3.988.557 3.003 1.212 6.532 1.8 7.286.535 5.198-3.318 12.823-6.55 16.795a23.6 23.6 0 0 1-2.539 2.694c5.643 9.23 8.839 20.02 9.86 30.774a1405 1405 0 0 1 7.71-24.99C53.206 46.365 53.57 35.81 55.15 28.5c1.571-7.278 5.09-15.19 11.62-19.286a32 32 0 0 1 2.241-1.257c4.612 5.751 6.343 12.142 5.545 19.449-1.069 9.815-6.578 18.992-14.272 25.088l-.32.252c-.61 2.174-1.314 4.34-2.017 6.507-.964 2.97-1.93 5.942-2.658 8.938l.127-.05q.12-.044.236-.095c.873-.39 2.433-2.811 3.734-4.829.667-1.035 1.266-1.964 1.667-2.457 6.774-8.325 15.976-13.296 26.878-13.061 2.05.044 4.508.12 6.459.695.941.276 1.1.424 1.611 1.241-.311 5.77-7.91 14.89-12.27 18.803C74.743 76.505 63.577 81.146 52.289 85l-1.233-.274-3.951-.877-2.033-.452-1.87-.566.127-.333c-.233-.908-1.575-1.163-2.517-1.341l-.012-.003-.246-.047q-1.656-.328-3.34-.652l-.018-.003C24.908 78.078 11.702 75.527 3.58 65.155 2.193 63.381-.248 59.874.036 57.648c1.88-1.605 7.43-2.165 9.839-2.3 12.184-.684 23.69 5.8 31.26 14.965.754.911 1.44 2.034 2.129 3.164.97 1.59 1.95 3.194 3.137 4.236l.47-.874c-1.32-10.325-3.721-19.572-9.414-28.376-3.992 1.18-7.695 1.52-11.844.76-2.65-.485-6.926-1.817-8.527-4.1-.464-.732-3.148-2.056-5.77-3.351-2.035-1.004-4.032-1.99-4.93-2.668C2.592 36.24.716 32.436.033 27.794l-.016-.392c-.172-5.173 1.08-9.792 4.754-13.597 3.853-3.993 8.958-5.542 14.384-5.634" fill="#353c3a"></path>
    <path d="M19.153 8.17c1.473-2.224 3.106-4.108 5.345-5.6C27.603.5 31.302-.54 35.007.28c2.987.662 5.416 2.671 7.052 5.178-5.117 1.478-6.862 3.44-9.83 7.831-.78 2.139-1.448 4.377-1.638 6.657 3.6 3.165 5.914 6.728 6.234 11.631.038.586.082.695-.239 1.17l-1.308-.386c-1.166.85-1.458 2.297-1.676 3.655-.387 2.423-.444 5.037-.397 7.49-3.004-.878-5.648-1.182-8.775-1.037-2.573.635-5 1.376-7.345 2.654-.825-1.3-8.645-4.467-10.7-6.02C2.59 36.24.715 32.437.032 27.794l-.017-.391c-.171-5.173 1.081-9.792 4.754-13.597 3.854-3.993 8.958-5.542 14.384-5.634" fill="#eae9e8"></path>
    <path d="M19.153 8.17c1.473-2.224 3.106-4.108 5.345-5.6C27.603.5 31.302-.54 35.007.28c2.987.662 5.416 2.671 7.052 5.178-5.117 1.478-6.862 3.44-9.83 7.831-.78 2.139-1.448 4.377-1.638 6.657l-3.594-1.447c-1.434.038-4.259-.25-5.487.37l-1.584.768c-.61.554-1.324 1.389-2.026 1.792l-1.327 2.286-.92.057c-4.271-.077-8.305.388-12.215 2.229-1.106.52-2.266 1.447-3.406 1.792l-.017-.391c-.171-5.173 1.081-9.792 4.754-13.597 3.854-3.993 8.958-5.542 14.384-5.634" fill="#db8778"></path>
    <path d="M26.999 18.499c.654-1.749 1.205-3.899 2.556-5.233 1.22-.492 1.465-.33 2.675.023-.78 2.139-1.448 4.377-1.637 6.657zm-7.073 1.138c-1.291-.886-2.776-1.79-3.821-2.97-.678-.766-1.033-1.6-.986-2.62l.68-.334c2.86.626 4.082 2.96 5.711 5.155zm-4.273 4.135c-.538-.067-1.144-.115-1.667-.268-.872-.257-1.012-.617-1.344-1.365.372-.52.461-.664 1.052-.924 1.428-.625 2.806-.308 4.205.214l-1.327 2.286zM22.78 10.49c.482.209.955.457 1.26.904 1.224 1.793 1.02 5.371.797 7.449l-1.7-.504c-.234-.255-.415-.457-.558-.775-1.003-2.218-.588-4.866.2-7.073" fill="#353c3a"></path>
    <path d="m15.655 23.772.92-.057c-1.12 4.227-1.725 8.502.62 12.473 1.674 2.835 4.39 4.743 7.237 6.281-2.573.635-5.001 1.376-7.345 2.654-.826-1.3-8.645-4.468-10.7-6.02C2.591 36.24.716 32.437.032 27.794c1.141-.345 2.301-1.272 3.406-1.792 3.91-1.841 7.944-2.306 12.216-2.23" fill="#ebb19f"></path>
    <path d="M55.288 68.191c.12-.048.244-.09.363-.145 1.32-.59 4.216-5.832 5.401-7.286 6.774-8.325 15.976-13.296 26.878-13.061 2.05.043 4.508.12 6.458.695.942.276 1.101.424 1.612 1.241-.311 5.77-7.91 14.89-12.27 18.803C74.743 76.505 63.577 81.146 52.288 85c5.864-7.408 12.725-14.678 20.065-20.634 2.553-2.071 13.335-8.655 14.117-10.01-.347-.225-.395-.369-.826-.306-9.749 1.415-28.529 21.397-34.36 28.952.737-5.144 2.006-10.002 4.004-14.81M43.201 82.83l.128-.332c-.255-.995-1.843-1.206-2.776-1.391C27.376 78.48 12.448 76.479 3.58 65.154c-1.388-1.772-3.829-5.28-3.545-7.506 1.882-1.606 7.431-2.165 9.84-2.3 12.184-.684 23.689 5.8 31.26 14.965 1.815 2.194 3.235 5.619 5.266 7.4l.47-.874c.208 1.23.291 2.197.112 3.445-1.464-.468-3.778-3.467-5.154-4.554-7.766-6.142-21.387-14.495-31.665-14.2l-.266.361c2.56 1.99 6.886 2.78 9.94 3.837 9.211 3.188 19.483 9.233 25.354 17.183l-.315.354c-.51-.116-1.229-.183-1.676-.434M69.008 7.957c4.612 5.751 6.343 12.142 5.545 19.448-1.069 9.816-6.578 18.993-14.272 25.09l-.32.25c1.78-8.757 3.1-17.989 5.709-26.518.57-1.855 1.839-5.205.897-6.971l-.658.262c-4.017 6.343-6.051 25.023-8.497 33.339-4.208-6.492-3.845-17.047-2.265-24.357 1.571-7.278 5.09-15.191 11.62-19.286.726-.454 1.48-.862 2.241-1.257" fill="#97a898"></path>
    <path d="M32.23 13.29c2.967-4.392 4.712-6.354 9.83-7.832 1.683 3.546 3.159 7.076 4.252 10.852.618 2.13 1.699 10.093 2.62 11.274-3.27.66-5.54 2.415-7.36 5.178-1.012 1.539-1.804 3.293-2.537 4.981-.81-1.495-2.121-3.34-2.449-4.996.32-.475.277-.584.239-1.17-.32-4.903-2.633-8.466-6.234-11.631.19-2.28.858-4.518 1.638-6.657" fill="#ebb19f"></path>
  </g>
</svg>